<mxfile host="Electron" agent="Mozilla/5.0 (Windows NT 10.0; Win64; x64) AppleWebKit/537.36 (KHTML, like Gecko) draw.io/24.7.17 Chrome/128.0.6613.36 Electron/32.0.1 Safari/537.36" version="24.7.17">
  <diagram id="C5RBs43oDa-KdzZeNtuy" name="Page-1">
    <mxGraphModel dx="2049" dy="1206" grid="1" gridSize="10" guides="1" tooltips="1" connect="1" arrows="1" fold="1" page="1" pageScale="1" pageWidth="827" pageHeight="1169" math="0" shadow="0">
      <root>
        <mxCell id="WIyWlLk6GJQsqaUBKTNV-0" />
        <mxCell id="WIyWlLk6GJQsqaUBKTNV-1" parent="WIyWlLk6GJQsqaUBKTNV-0" />
        <mxCell id="WnCiEWcJSFmBB8FKodSa-1" value="Jouer" style="ellipse;whiteSpace=wrap;html=1;" vertex="1" parent="WIyWlLk6GJQsqaUBKTNV-1">
          <mxGeometry x="320" y="520" width="120" height="80" as="geometry" />
        </mxCell>
        <mxCell id="WnCiEWcJSFmBB8FKodSa-17" style="edgeStyle=orthogonalEdgeStyle;rounded=0;orthogonalLoop=1;jettySize=auto;html=1;entryX=0.5;entryY=1;entryDx=0;entryDy=0;" edge="1" parent="WIyWlLk6GJQsqaUBKTNV-1" source="WnCiEWcJSFmBB8FKodSa-2" target="WnCiEWcJSFmBB8FKodSa-1">
          <mxGeometry relative="1" as="geometry" />
        </mxCell>
        <mxCell id="WnCiEWcJSFmBB8FKodSa-2" value="Poser" style="ellipse;whiteSpace=wrap;html=1;" vertex="1" parent="WIyWlLk6GJQsqaUBKTNV-1">
          <mxGeometry x="320" y="690" width="120" height="70" as="geometry" />
        </mxCell>
        <mxCell id="WnCiEWcJSFmBB8FKodSa-18" style="edgeStyle=orthogonalEdgeStyle;rounded=0;orthogonalLoop=1;jettySize=auto;html=1;entryX=1;entryY=0.5;entryDx=0;entryDy=0;" edge="1" parent="WIyWlLk6GJQsqaUBKTNV-1" source="WnCiEWcJSFmBB8FKodSa-3" target="WnCiEWcJSFmBB8FKodSa-1">
          <mxGeometry relative="1" as="geometry" />
        </mxCell>
        <mxCell id="WnCiEWcJSFmBB8FKodSa-3" value="Piocher" style="ellipse;whiteSpace=wrap;html=1;" vertex="1" parent="WIyWlLk6GJQsqaUBKTNV-1">
          <mxGeometry x="540" y="635" width="112.5" height="75" as="geometry" />
        </mxCell>
        <mxCell id="WnCiEWcJSFmBB8FKodSa-4" value="Attendre" style="ellipse;whiteSpace=wrap;html=1;" vertex="1" parent="WIyWlLk6GJQsqaUBKTNV-1">
          <mxGeometry x="320" y="320" width="120" height="80" as="geometry" />
        </mxCell>
        <mxCell id="WnCiEWcJSFmBB8FKodSa-15" style="edgeStyle=orthogonalEdgeStyle;rounded=0;orthogonalLoop=1;jettySize=auto;html=1;entryX=0;entryY=0.5;entryDx=0;entryDy=0;" edge="1" parent="WIyWlLk6GJQsqaUBKTNV-1" source="WnCiEWcJSFmBB8FKodSa-9" target="WnCiEWcJSFmBB8FKodSa-1">
          <mxGeometry relative="1" as="geometry" />
        </mxCell>
        <mxCell id="WnCiEWcJSFmBB8FKodSa-16" style="edgeStyle=orthogonalEdgeStyle;rounded=0;orthogonalLoop=1;jettySize=auto;html=1;entryX=0;entryY=0.5;entryDx=0;entryDy=0;" edge="1" parent="WIyWlLk6GJQsqaUBKTNV-1" source="WnCiEWcJSFmBB8FKodSa-9" target="WnCiEWcJSFmBB8FKodSa-4">
          <mxGeometry relative="1" as="geometry" />
        </mxCell>
        <mxCell id="WnCiEWcJSFmBB8FKodSa-9" value="Actor" style="shape=umlActor;verticalLabelPosition=bottom;verticalAlign=top;html=1;outlineConnect=0;" vertex="1" parent="WIyWlLk6GJQsqaUBKTNV-1">
          <mxGeometry x="210" y="540" width="30" height="60" as="geometry" />
        </mxCell>
      </root>
    </mxGraphModel>
  </diagram>
</mxfile>
